<svg width="224" height="182" viewBox="0 0 224 182" fill="none" xmlns="http://www.w3.org/2000/svg">
<path id="Union" fill-rule="evenodd" clip-rule="evenodd" d="M85.3332 0.666626C83.8493 0.666626 82.4421 1.32574 81.4921 2.4657L56.3247 32.6666H26.6666C19.6826 32.6666 12.9846 35.441 8.04611 40.3795C3.10765 45.3179 0.333252 52.0159 0.333252 59V155C0.333252 161.984 3.10765 168.682 8.04611 173.62C12.9846 178.559 19.6825 181.333 26.6666 181.333H197.333C204.317 181.333 211.015 178.559 215.954 173.62C220.892 168.682 223.667 161.984 223.667 155V59C223.667 52.0159 220.892 45.3179 215.954 40.3795C211.015 35.441 204.317 32.6666 197.333 32.6666H167.675L142.508 2.4657C141.558 1.32574 140.15 0.666626 138.667 0.666626H85.3332ZM62.5077 40.8675L87.6751 10.6666H136.325L161.492 40.8675C162.442 42.0075 163.849 42.6666 165.333 42.6666H197.333C201.665 42.6666 205.82 44.3875 208.883 47.4506C211.946 50.5136 213.667 54.6681 213.667 59V155C213.667 159.332 211.946 163.486 208.883 166.549C205.82 169.612 201.665 171.333 197.333 171.333H26.6666C22.3347 171.333 18.1803 169.612 15.1172 166.549C12.0541 163.486 10.3333 159.332 10.3333 155V59C10.3333 54.6681 12.0541 50.5136 15.1172 47.4506C18.1803 44.3875 22.3347 42.6666 26.6666 42.6666H58.6666C60.1505 42.6666 61.5577 42.0075 62.5077 40.8675ZM85.3333 90.75C85.3333 75.7677 97.4088 63.6666 112.25 63.6666C127.091 63.6666 139.167 75.7677 139.167 90.75C139.167 105.732 127.091 117.833 112.25 117.833C97.4088 117.833 85.3333 105.732 85.3333 90.75ZM112.25 53.6666C91.8369 53.6666 75.3333 70.294 75.3333 90.75C75.3333 111.206 91.8369 127.833 112.25 127.833C132.663 127.833 149.167 111.206 149.167 90.75C149.167 70.294 132.663 53.6666 112.25 53.6666Z" fill="#FAFAFA"/>
</svg>
