<svg width="46" height="46" viewBox="0 0 46 46" fill="none" xmlns="http://www.w3.org/2000/svg">
<g clip-path="url(#clip0_52_192)">
<path d="M29.562 4.25H16.6245C15.8745 4.25 15.1245 4.625 14.562 5.1875C13.9995 5.75 13.6245 6.5 13.6245 7.25V31.25C13.6245 32 13.9995 32.75 14.562 33.3125C15.1245 33.875 15.8745 34.25 16.6245 34.25H34.9994C35.7494 34.25 36.4995 33.875 37.062 33.3125C37.6245 32.75 37.9995 32 37.9995 31.25V12.6875L29.562 4.25Z" stroke="#FAFAFA" stroke-width="2.14292" stroke-linecap="round" stroke-linejoin="round"/>
<path d="M10.3995 11.3V35.3C10.3995 36.05 10.7745 36.8 11.337 37.3625C11.8995 37.925 12.6495 38.3 13.3995 38.3H31.7745" stroke="#FAFAFA" stroke-width="2.14292" stroke-linecap="round" stroke-linejoin="round"/>
<path d="M28.6245 4.25V13.625H37.9995" stroke="#FAFAFA" stroke-width="2.14292" stroke-linecap="round" stroke-linejoin="round"/>
</g>
<defs>
<clipPath id="clip0_52_192">
<rect width="45" height="45" fill="white" transform="translate(0.499451 0.5)"/>
</clipPath>
</defs>
</svg>
