<svg width="35" height="35" viewBox="0 0 35 35" fill="none" xmlns="http://www.w3.org/2000/svg">
<path id="Union" fill-rule="evenodd" clip-rule="evenodd" d="M33 17.5C33 26.0604 26.0604 33 17.5 33C8.93959 33 2 26.0604 2 17.5C2 8.93959 8.93959 2 17.5 2C26.0604 2 33 8.93959 33 17.5ZM35 17.5C35 27.165 27.165 35 17.5 35C7.83502 35 0 27.165 0 17.5C0 7.83502 7.83502 0 17.5 0C27.165 0 35 7.83502 35 17.5ZM15.0684 21.3643H19.0381C19.0479 20.6025 19.1553 19.958 19.3604 19.4307C19.5654 18.8936 19.9463 18.376 20.5029 17.8779C21.1572 17.2822 21.7529 16.7109 22.29 16.1641C22.8271 15.6074 23.2568 15.0117 23.5791 14.377C23.9014 13.7324 24.0625 12.9854 24.0625 12.1357C24.0625 10.8955 23.7939 9.8457 23.2568 8.98633C22.7295 8.12695 21.9629 7.47754 20.957 7.03809C19.9609 6.59863 18.7646 6.37891 17.3682 6.37891C16.1084 6.37891 14.9658 6.59375 13.9404 7.02344C12.9248 7.44336 12.1143 8.10254 11.5088 9.00098C10.9033 9.88965 10.5859 11.0322 10.5566 12.4287H15.1562C15.1758 11.8428 15.2881 11.3691 15.4932 11.0078C15.6982 10.6465 15.9668 10.3828 16.2988 10.2168C16.6309 10.041 16.9873 9.95312 17.3682 9.95312C17.8271 9.95312 18.208 10.0459 18.5107 10.2314C18.8232 10.4072 19.0576 10.6709 19.2139 11.0225C19.3799 11.3643 19.4629 11.8037 19.4629 12.3408C19.4629 12.79 19.3701 13.2051 19.1846 13.5859C18.999 13.9668 18.7354 14.3379 18.3936 14.6992C18.0518 15.0508 17.6514 15.4268 17.1924 15.8271C16.665 16.3057 16.2451 16.8086 15.9326 17.3359C15.6201 17.8535 15.3955 18.4395 15.2588 19.0938C15.1318 19.7383 15.0684 20.4951 15.0684 21.3643ZM15.2441 24.1914C14.7754 24.6406 14.541 25.1924 14.541 25.8467C14.541 26.5107 14.7754 27.0674 15.2441 27.5166C15.7227 27.9561 16.3428 28.1758 17.1045 28.1758C17.8662 28.1758 18.4814 27.9561 18.9502 27.5166C19.4189 27.0674 19.6533 26.5107 19.6533 25.8467C19.6533 25.1924 19.4189 24.6406 18.9502 24.1914C18.4814 23.7422 17.8662 23.5176 17.1045 23.5176C16.3428 23.5176 15.7227 23.7422 15.2441 24.1914Z" fill="#FAFAFA"/>
</svg>
