<svg width="46" height="46" viewBox="0 0 46 46" fill="none" xmlns="http://www.w3.org/2000/svg">
<path d="M22.9995 4.25C21.5076 4.25 20.0769 4.84263 19.022 5.89752C17.9671 6.95242 17.3745 8.38316 17.3745 9.875V23C17.3745 24.4918 17.9671 25.9226 19.022 26.9775C20.0769 28.0324 21.5076 28.625 22.9995 28.625C24.4913 28.625 25.922 28.0324 26.9769 26.9775C28.0318 25.9226 28.6245 24.4918 28.6245 23V9.875C28.6245 8.38316 28.0318 6.95242 26.9769 5.89752C25.922 4.84263 24.4913 4.25 22.9995 4.25Z" stroke="#FAFAFA" stroke-width="3.57154" stroke-linecap="round" stroke-linejoin="round"/>
<path d="M36.1245 19.25V23C36.1245 26.481 34.7416 29.8194 32.2802 32.2808C29.8188 34.7422 26.4804 36.125 22.9995 36.125C19.5185 36.125 16.1801 34.7422 13.7187 32.2808C11.2573 29.8194 9.87445 26.481 9.87445 23V19.25" stroke="#FAFAFA" stroke-width="3.57154" stroke-linecap="round" stroke-linejoin="round"/>
<path d="M22.9995 36.125V41.75" stroke="#FAFAFA" stroke-width="3.57154" stroke-linecap="round" stroke-linejoin="round"/>
</svg>
