<svg width="45" height="60" viewBox="0 0 45 60" fill="none" xmlns="http://www.w3.org/2000/svg">
<g clip-path="url(#clip0_52_210)">
<path fill-rule="evenodd" clip-rule="evenodd" d="M2.06488 7.71523C1.55151 7.45935 0.934878 7.53532 0.498976 7.90817C0.0630738 8.28101 -0.10756 8.87842 0.0656619 9.42524L6.58328 30L0.0656619 50.5748C-0.10756 51.1216 0.0630738 51.719 0.498976 52.0919C0.934878 52.4647 1.55151 52.5407 2.06488 52.2848L44.2087 31.2786C44.6935 31.0369 45 30.5418 45 30C45 29.4583 44.6935 28.9631 44.2087 28.7214L2.06488 7.71523ZM9.1003 28.4843L3.80761 11.7764L37.3209 28.4808L9.23538 28.478C9.18983 28.478 9.14477 28.4802 9.1003 28.4843ZM9.15812 31.3332L3.80761 48.2237L37.6845 31.338L9.23513 31.3353C9.20929 31.3353 9.18362 31.3346 9.15812 31.3332Z" fill="#5BC0BE"/>
</g>
<defs>
<clipPath id="clip0_52_210">
<rect x="-0.00109863" y="0.422119" width="45.0011" height="59.1558" rx="10.7146" fill="white"/>
</clipPath>
</defs>
</svg>
