<svg width="35" height="35" viewBox="0 0 35 35" fill="none" xmlns="http://www.w3.org/2000/svg">
<g id="settings">
<path id="Vector" d="M17.8208 2.91675H17.1792C16.4056 2.91675 15.6638 3.22404 15.1168 3.77102C14.5698 4.318 14.2625 5.05987 14.2625 5.83341V6.09591C14.262 6.60739 14.127 7.10973 13.871 7.55255C13.615 7.99537 13.2471 8.36309 12.8042 8.61883L12.1771 8.98341C11.7337 9.23941 11.2307 9.37417 10.7188 9.37417C10.2068 9.37417 9.70381 9.23941 9.26042 8.98341L9.04167 8.86675C8.37239 8.48067 7.57727 8.37594 6.83084 8.57553C6.08441 8.77512 5.44768 9.26274 5.06042 9.93133L4.73959 10.4855C4.35351 11.1548 4.24877 11.9499 4.44837 12.6963C4.64796 13.4428 5.13558 14.0795 5.80417 14.4667L6.02292 14.6126C6.46374 14.8671 6.83028 15.2325 7.08612 15.6725C7.34196 16.1126 7.47818 16.6119 7.48125 17.1209V17.8647C7.48329 18.3786 7.34949 18.884 7.0934 19.3296C6.83731 19.7752 6.46802 20.1452 6.02292 20.4022L5.80417 20.5334C5.13558 20.9207 4.64796 21.5574 4.44837 22.3038C4.24877 23.0503 4.35351 23.8454 4.73959 24.5147L5.06042 25.0688C5.44768 25.7374 6.08441 26.225 6.83084 26.4246C7.57727 26.6242 8.37239 26.5195 9.04167 26.1334L9.26042 26.0167C9.70381 25.7608 10.2068 25.626 10.7188 25.626C11.2307 25.626 11.7337 25.7608 12.1771 26.0167L12.8042 26.3813C13.2471 26.6371 13.615 27.0048 13.871 27.4476C14.127 27.8904 14.262 28.3928 14.2625 28.9042V29.1667C14.2625 29.9403 14.5698 30.6822 15.1168 31.2291C15.6638 31.7761 16.4056 32.0834 17.1792 32.0834H17.8208C18.5944 32.0834 19.3363 31.7761 19.8832 31.2291C20.4302 30.6822 20.7375 29.9403 20.7375 29.1667V28.9042C20.738 28.3928 20.873 27.8904 21.129 27.4476C21.385 27.0048 21.7529 26.6371 22.1958 26.3813L22.8229 26.0167C23.2663 25.7608 23.7693 25.626 24.2813 25.626C24.7932 25.626 25.2962 25.7608 25.7396 26.0167L25.9583 26.1334C26.6276 26.5195 27.4227 26.6242 28.1692 26.4246C28.9156 26.225 29.5523 25.7374 29.9396 25.0688L30.2604 24.5001C30.6465 23.8308 30.7512 23.0357 30.5516 22.2893C30.352 21.5428 29.8644 20.9061 29.1958 20.5188L28.9771 20.4022C28.532 20.1452 28.1627 19.7752 27.9066 19.3296C27.6505 18.884 27.5167 18.3786 27.5188 17.8647V17.1355C27.5167 16.6216 27.6505 16.1162 27.9066 15.6706C28.1627 15.225 28.532 14.855 28.9771 14.598L29.1958 14.4667C29.8644 14.0795 30.352 13.4428 30.5516 12.6963C30.7512 11.9499 30.6465 11.1548 30.2604 10.4855L29.9396 9.93133C29.5523 9.26274 28.9156 8.77512 28.1692 8.57553C27.4227 8.37594 26.6276 8.48067 25.9583 8.86675L25.7396 8.98341C25.2962 9.23941 24.7932 9.37417 24.2813 9.37417C23.7693 9.37417 23.2663 9.23941 22.8229 8.98341L22.1958 8.61883C21.7529 8.36309 21.385 7.99537 21.129 7.55255C20.873 7.10973 20.738 6.60739 20.7375 6.09591V5.83341C20.7375 5.05987 20.4302 4.318 19.8832 3.77102C19.3363 3.22404 18.5944 2.91675 17.8208 2.91675Z" stroke="#FAFAFA" stroke-width="2" stroke-linecap="round" stroke-linejoin="round"/>
<path id="Vector_2" d="M17.5 21.875C19.9162 21.875 21.875 19.9162 21.875 17.5C21.875 15.0838 19.9162 13.125 17.5 13.125C15.0838 13.125 13.125 15.0838 13.125 17.5C13.125 19.9162 15.0838 21.875 17.5 21.875Z" stroke="#FAFAFA" stroke-width="2" stroke-linecap="round" stroke-linejoin="round"/>
</g>
</svg>
