<svg width="46" height="46" viewBox="0 0 46 46" fill="none" xmlns="http://www.w3.org/2000/svg">
<g clip-path="url(#clip0_52_198)">
<path d="M23.412 4.25H22.587C21.5924 4.25 20.6386 4.64509 19.9353 5.34835C19.232 6.05161 18.837 7.00544 18.837 8V8.3375C18.8363 8.99511 18.6627 9.64098 18.3336 10.2103C18.0045 10.7797 17.5315 11.2524 16.962 11.5812L16.1557 12.05C15.5856 12.3791 14.939 12.5524 14.2807 12.5524C13.6224 12.5524 12.9758 12.3791 12.4057 12.05L12.1245 11.9C11.264 11.4036 10.2416 11.269 9.28196 11.5256C8.32227 11.7822 7.50361 12.4091 7.0057 13.2687L6.5932 13.9813C6.09682 14.8418 5.96216 15.8641 6.21878 16.8237C6.4754 17.7834 7.10233 18.6021 7.96195 19.1L8.2432 19.2875C8.80997 19.6147 9.28124 20.0845 9.61017 20.6503C9.93911 21.2161 10.1143 21.8581 10.1182 22.5125V23.4688C10.1208 24.1295 9.9488 24.7793 9.61954 25.3522C9.29027 25.9251 8.81547 26.4009 8.2432 26.7312L7.96195 26.9C7.10233 27.3979 6.4754 28.2166 6.21878 29.1763C5.96216 30.1359 6.09682 31.1582 6.5932 32.0187L7.0057 32.7313C7.50361 33.5909 8.32227 34.2178 9.28196 34.4744C10.2416 34.731 11.264 34.5964 12.1245 34.1L12.4057 33.95C12.9758 33.6209 13.6224 33.4476 14.2807 33.4476C14.939 33.4476 15.5856 33.6209 16.1557 33.95L16.962 34.4188C17.5315 34.7476 18.0045 35.2203 18.3336 35.7897C18.6627 36.359 18.8363 37.0049 18.837 37.6625V38C18.837 38.9946 19.232 39.9484 19.9353 40.6516C20.6386 41.3549 21.5924 41.75 22.587 41.75H23.412C24.4065 41.75 25.3603 41.3549 26.0636 40.6516C26.7669 39.9484 27.162 38.9946 27.162 38V37.6625C27.1626 37.0049 27.3362 36.359 27.6653 35.7897C27.9944 35.2203 28.4674 34.7476 29.037 34.4188L29.8432 33.95C30.4133 33.6209 31.0599 33.4476 31.7182 33.4476C32.3765 33.4476 33.0231 33.6209 33.5932 33.95L33.8744 34.1C34.735 34.5964 35.7573 34.731 36.7169 34.4744C37.6766 34.2178 38.4953 33.5909 38.9932 32.7313L39.4057 32C39.9021 31.1395 40.0367 30.1172 39.7801 29.1575C39.5235 28.1978 38.8966 27.3792 38.037 26.8812L37.7557 26.7312C37.1834 26.4009 36.7086 25.9251 36.3794 25.3522C36.0501 24.7793 35.8781 24.1295 35.8807 23.4688V22.5312C35.8781 21.8705 36.0501 21.2207 36.3794 20.6478C36.7086 20.0749 37.1834 19.5991 37.7557 19.2688L38.037 19.1C38.8966 18.6021 39.5235 17.7834 39.7801 16.8237C40.0367 15.8641 39.9021 14.8418 39.4057 13.9813L38.9932 13.2687C38.4953 12.4091 37.6766 11.7822 36.7169 11.5256C35.7573 11.269 34.735 11.4036 33.8744 11.9L33.5932 12.05C33.0231 12.3791 32.3765 12.5524 31.7182 12.5524C31.0599 12.5524 30.4133 12.3791 29.8432 12.05L29.037 11.5812C28.4674 11.2524 27.9944 10.7797 27.6653 10.2103C27.3362 9.64098 27.1626 8.99511 27.162 8.3375V8C27.162 7.00544 26.7669 6.05161 26.0636 5.34835C25.3603 4.64509 24.4065 4.25 23.412 4.25Z" stroke="#FAFAFA" stroke-width="2.85723" stroke-linecap="round" stroke-linejoin="round"/>
<path d="M24.3182 27.9126H21.6737C21.6816 27.1774 21.7448 26.5608 21.8634 26.0627C21.982 25.5567 22.1797 25.0982 22.4564 24.6871C22.741 24.276 23.1165 23.8412 23.5829 23.3827C23.9466 23.0348 24.2747 22.7067 24.5672 22.3984C24.8597 22.0822 25.0929 21.7501 25.2669 21.4023C25.4408 21.0465 25.5277 20.6394 25.5277 20.1808C25.5277 19.6828 25.4447 19.2598 25.2787 18.9119C25.1127 18.5641 24.8676 18.2993 24.5435 18.1174C24.2272 17.9356 23.832 17.8447 23.3576 17.8447C22.9623 17.8447 22.5908 17.9237 22.2429 18.0818C21.895 18.2321 21.6144 18.4692 21.4009 18.7934C21.1875 19.1096 21.0729 19.5286 21.057 20.0504H18.1991C18.2149 19.0543 18.4521 18.2162 18.9106 17.5363C19.3692 16.8565 19.9858 16.3465 20.7606 16.0066C21.5353 15.6666 22.401 15.4967 23.3576 15.4967C24.417 15.4967 25.3222 15.6785 26.0732 16.0422C26.8243 16.3979 27.3975 16.9197 27.7927 17.6075C28.1959 18.2874 28.3975 19.1096 28.3975 20.0741C28.3975 20.7698 28.2592 21.4023 27.9825 21.9715C27.7058 22.5328 27.3461 23.0585 26.9033 23.5487C26.4606 24.0309 25.9823 24.5132 25.4684 24.9954C25.0257 25.3986 24.7253 25.8374 24.5672 26.3117C24.4091 26.7782 24.3261 27.3118 24.3182 27.9126ZM21.4365 31.6125C21.4365 31.1856 21.5828 30.8259 21.8753 30.5334C22.1678 30.233 22.567 30.0828 23.073 30.0828C23.579 30.0828 23.9782 30.233 24.2707 30.5334C24.5632 30.8259 24.7095 31.1856 24.7095 31.6125C24.7095 32.0395 24.5632 32.4031 24.2707 32.7035C23.9782 32.996 23.579 33.1423 23.073 33.1423C22.567 33.1423 22.1678 32.996 21.8753 32.7035C21.5828 32.4031 21.4365 32.0395 21.4365 31.6125Z" fill="#FAFAFA"/>
<path fill-rule="evenodd" clip-rule="evenodd" d="M32.8437 1.59325C32.8096 1.28647 32.5823 1.03629 32.2802 0.97299C31.9781 0.909692 31.6695 1.0476 31.5152 1.3149L29.8364 4.22179L29.835 4.22437C29.8047 4.27735 29.7622 4.32239 29.7111 4.35578C29.66 4.38916 29.6017 4.40994 29.541 4.41639L29.5377 4.41675L26.1927 4.78835C25.8859 4.82243 25.6357 5.0497 25.5724 5.35181C25.5091 5.65391 25.647 5.9625 25.9143 6.11686L28.8212 7.79558L28.8238 7.79706C28.8768 7.82736 28.9218 7.86982 28.9552 7.92092C28.9886 7.97203 29.0093 8.03033 29.0158 8.09103L29.0162 8.09428L29.3878 11.4394C29.4218 11.7461 29.6491 11.9963 29.9512 12.0596C30.2533 12.1229 30.5619 11.985 30.7163 11.7177L32.395 8.81082L32.3965 8.80824C32.4268 8.75525 32.4692 8.71022 32.5203 8.67683C32.5714 8.64345 32.6297 8.62267 32.6904 8.61622L32.6937 8.61586L36.0388 8.24426C36.3455 8.21018 36.5957 7.9829 36.659 7.6808C36.7223 7.3787 36.5844 7.07011 36.3171 6.91575L33.4102 5.23703L33.4077 5.23555C33.3547 5.20525 33.3096 5.16279 33.2762 5.11169C33.2429 5.06058 33.2221 5.00228 33.2156 4.94158L33.2153 4.93833L32.8437 1.59325ZM31.0751 4.93366L31.664 3.91378L31.795 5.09281L31.7952 5.09457C31.8258 5.37947 31.9235 5.65308 32.0802 5.89299C32.2369 6.13292 32.4483 6.33231 32.6969 6.47482L32.6984 6.47565L33.7182 7.06464L32.5392 7.19562L32.5374 7.19581C32.2525 7.22642 31.9789 7.32408 31.739 7.48079C31.4991 7.63753 31.2997 7.84887 31.1572 8.0975L31.1564 8.09895L30.5674 9.11883L30.4364 7.9398L30.4362 7.93802C30.4056 7.65312 30.3079 7.37952 30.1512 7.13962C29.9945 6.89968 29.7832 6.7003 29.5345 6.55779L29.5331 6.55696L28.5132 5.96797L29.6922 5.83699L29.694 5.8368C29.9789 5.80619 30.2525 5.70853 30.4924 5.55182C30.7323 5.39508 30.9317 5.18374 31.0742 4.93511L31.0751 4.93366ZM18.1066 33.35C17.9697 33.0734 17.6706 32.916 17.365 32.9599C17.0595 33.0037 16.8167 33.2389 16.763 33.5428L16.1798 36.8486L16.1793 36.8515C16.1689 36.9117 16.1444 36.9685 16.1078 37.0173C16.0712 37.0662 16.0235 37.1057 15.9687 37.1325L15.9658 37.1339L12.9495 38.6272C12.6729 38.7641 12.5155 39.0633 12.5594 39.3688C12.6032 39.6743 12.8383 39.9172 13.1423 39.9708L16.448 40.5541L16.451 40.5546C16.5111 40.5649 16.568 40.5894 16.6168 40.626C16.6657 40.6626 16.7051 40.7103 16.732 40.7651L16.7334 40.7681L18.2267 43.7843C18.3636 44.061 18.6627 44.2183 18.9683 44.1745C19.2738 44.1306 19.5166 43.8955 19.5703 43.5915L20.1535 40.2858L20.154 40.2829C20.1644 40.2227 20.1889 40.1659 20.2255 40.117C20.2621 40.0682 20.3098 40.0287 20.3646 40.0019L20.3675 40.0004L23.3838 38.5072C23.6604 38.3702 23.8178 38.0711 23.7739 37.7655C23.7301 37.46 23.495 37.2172 23.191 37.1636L19.8853 36.5803L19.8823 36.5798C19.8222 36.5694 19.7653 36.5449 19.7165 36.5083C19.6676 36.4717 19.6282 36.424 19.6013 36.3692L19.5999 36.3663L18.1066 33.35ZM17.5872 37.0939L17.7918 35.9341L18.3181 36.9972L18.3189 36.9988C18.4451 37.256 18.6305 37.4797 18.8598 37.6516C19.0891 37.8234 19.3559 37.9385 19.6383 37.9874L19.6399 37.9877L20.7998 38.1923L19.7366 38.7187L19.735 38.7195C19.4778 38.8457 19.2541 39.031 19.0822 39.2603C18.9104 39.4897 18.7953 39.7565 18.7464 40.0388L18.7461 40.0405L18.5415 41.2003L18.0152 40.1372L18.0144 40.1356C17.8882 39.8783 17.7028 39.6546 17.4735 39.4828C17.2442 39.3109 16.9774 39.1958 16.695 39.147L16.6934 39.1467L15.5335 38.942L16.5967 38.4157L16.5983 38.4149C16.8555 38.2887 17.0792 38.1034 17.2511 37.874C17.4229 37.6447 17.538 37.3779 17.5869 37.0955L17.5872 37.0939ZM12.8355 11.5032C13.1419 11.4655 13.4378 11.6288 13.5692 11.9081L15.0018 14.9536L15.0032 14.9566L15.0032 14.9566C15.0289 15.0119 15.0674 15.0604 15.1155 15.098C15.1636 15.1356 15.22 15.1612 15.2799 15.1727L15.2828 15.1733L18.5762 15.8226C18.8791 15.8823 19.1093 16.1298 19.147 16.4361C19.1847 16.7425 19.0214 17.0384 18.7421 17.1698L15.6966 18.6024L15.6936 18.6038C15.6383 18.6295 15.5898 18.668 15.5522 18.7161C15.5147 18.7642 15.489 18.8206 15.4775 18.8805L15.4769 18.8834L14.8276 22.1768C14.7679 22.4797 14.5204 22.7099 14.2141 22.7476C13.9077 22.7853 13.6118 22.622 13.4804 22.3427L12.0478 19.2972L12.0464 19.2942C12.0207 19.2389 11.9822 19.1904 11.9341 19.1528C11.886 19.1153 11.8296 19.0896 11.7697 19.0781L11.7668 19.0775L8.47339 18.4282C8.17055 18.3685 7.94032 18.121 7.9026 17.8147C7.86488 17.5083 8.0282 17.2124 8.3075 17.081L11.353 15.6484L11.356 15.647L11.356 15.647C11.4114 15.6213 11.4598 15.5828 11.4974 15.5347C11.535 15.4866 11.5606 15.4302 11.5721 15.3703L11.5727 15.3674L12.222 12.074C12.2817 11.7711 12.5292 11.5409 12.8355 11.5032ZM13.2027 14.4853L12.9749 15.6408L12.9746 15.6424C12.9201 15.9238 12.7997 16.1882 12.6233 16.4141C12.4469 16.6399 12.2196 16.8207 11.9599 16.9417L10.8847 17.4475L12.0402 17.6753L12.0419 17.6756C12.3232 17.7301 12.5876 17.8505 12.8135 18.027C13.0393 18.2033 13.2201 18.4307 13.3412 18.6904L13.3419 18.6921L13.8469 19.7655L14.0747 18.61L14.075 18.6084C14.1295 18.327 14.2499 18.0626 14.4264 17.8367C14.6027 17.6109 14.83 17.4301 15.0897 17.3091L15.0915 17.3083L16.1649 16.8033L15.0094 16.5755L15.0078 16.5752C14.7264 16.5207 14.462 16.4003 14.2361 16.2239C14.0103 16.0475 13.8295 15.8201 13.7084 15.5604L13.7077 15.5588L13.2027 14.4853ZM35.0361 23.1327C35.0557 22.8246 34.8752 22.5388 34.5886 22.4242C34.302 22.3095 33.9742 22.3918 33.7759 22.6284L31.6189 25.2005L31.617 25.2027C31.578 25.2497 31.5284 25.2867 31.4723 25.3107C31.4162 25.3347 31.3551 25.3451 31.2942 25.3409L31.291 25.3407L27.9321 25.1272C27.6241 25.1076 27.3383 25.2881 27.2236 25.5747C27.1089 25.8612 27.1913 26.1891 27.4278 26.3874L29.9999 28.5443L30.0022 28.5462C30.0491 28.5853 30.0861 28.6349 30.1102 28.691C30.1342 28.7471 30.1445 28.8081 30.1404 28.869L30.1402 28.8723L29.9266 32.2312C29.9071 32.5392 30.0876 32.825 30.3741 32.9397C30.6607 33.0543 30.9885 32.972 31.1868 32.7355L33.3438 30.1634L33.3457 30.1611C33.3847 30.1141 33.4343 30.0771 33.4904 30.0531C33.5466 30.0291 33.6076 30.0187 33.6685 30.0229L33.6717 30.0231L37.0306 30.2366C37.3387 30.2562 37.6244 30.0757 37.7391 29.7891C37.8538 29.5026 37.7714 29.1748 37.5349 28.9764L34.9628 26.8195L34.9605 26.8176C34.9136 26.7786 34.8766 26.7289 34.8526 26.6728C34.8285 26.6167 34.8182 26.5557 34.8223 26.4948L34.8225 26.4915L35.0361 23.1327ZM32.7155 26.1162L33.4723 25.2137L33.397 26.3976L33.3969 26.3994C33.3777 26.6853 33.4265 26.9717 33.5392 27.2351C33.652 27.4986 33.8256 27.7316 34.0458 27.915L34.0471 27.9161L34.9495 28.6728L33.7656 28.5976L33.7639 28.5974C33.478 28.5782 33.1916 28.627 32.9282 28.7398C32.6647 28.8526 32.4317 29.0262 32.2483 29.2464L32.2472 29.2477L31.4904 30.1501L31.5657 28.9662L31.5658 28.9644C31.585 28.6785 31.5363 28.3921 31.4235 28.1287C31.3107 27.8652 31.1371 27.6323 30.9169 27.4488L30.9156 27.4478L30.0132 26.691L31.1971 26.7663L31.1988 26.7664C31.4847 26.7856 31.7711 26.7368 32.0346 26.624C32.298 26.5112 32.531 26.3376 32.7144 26.1174L32.7155 26.1162Z" fill="#5BC0BE"/>
</g>
<defs>
<clipPath id="clip0_52_198">
<rect width="45" height="45" fill="white" transform="translate(0.499451 0.5)"/>
</clipPath>
</defs>
</svg>
